<svg version="1.1" xmlns="http://www.w3.org/2000/svg" viewBox="0 0 1928.5975717080805 1007.2305454212096" width="5785.792715124242" height="3021.691636263629" filter="invert(93%) hue-rotate(180deg)">
  <!-- svg-source:excalidraw -->
  
  <defs>
    <style class="style-fonts">
      @font-face {
        font-family: "Virgil";
        src: url("https://excalidraw.com/Virgil.woff2");
      }
      @font-face {
        font-family: "Cascadia";
        src: url("https://excalidraw.com/Cascadia.woff2");
      }
      @font-face {
        font-family: "Assistant";
        src: url("https://excalidraw.com/Assistant-Regular.woff2");
      }
    </style>
    
  </defs>
  <rect x="0" y="0" width="1928.5975717080805" height="1007.2305454212096" fill="#ffffff"></rect><g stroke-linecap="round" transform="translate(10 10) rotate(0 461.5261966983172 344.889325437723)"><path d="M32 0 C370.52 2.61, 707.65 2.08, 891.05 0 M32 0 C247.44 2.16, 463.64 2.41, 891.05 0 M891.05 0 C910.71 -0.64, 922.5 10.8, 923.05 32 M891.05 0 C911.74 -1.08, 921.54 11.01, 923.05 32 M923.05 32 C924.83 260.37, 924.5 489.82, 923.05 657.78 M923.05 32 C925.26 267.6, 925.05 502.82, 923.05 657.78 M923.05 657.78 C921.44 678.25, 912.37 690.26, 891.05 689.78 M923.05 657.78 C924.85 678.25, 913.56 689.55, 891.05 689.78 M891.05 689.78 C631.77 687.55, 373.02 687.05, 32 689.78 M891.05 689.78 C617.87 689.49, 343.65 689.26, 32 689.78 M32 689.78 C11.76 688.23, 0.2 678.2, 0 657.78 M32 689.78 C8.75 690.23, 1.79 678.28, 0 657.78 M0 657.78 C-2.96 413.86, -2.21 167.87, 0 32 M0 657.78 C-0.1 517.36, 0.2 377.18, 0 32 M0 32 C-1.3 8.87, 9.9 -0.08, 32 0 M0 32 C-0.78 9.51, 12.83 -0.96, 32 0" stroke="#1e1e1e" stroke-width="2" fill="none"></path></g><g transform="translate(49.959721847755304 27.999999999999886) rotate(0 69.12002563476562 22.5)"><text x="0" y="31.536" font-family="Virgil, Segoe UI Emoji" font-size="36px" fill="#1e1e1e" text-anchor="start" style="white-space: pre;" direction="ltr" dominant-baseline="alphabetic">Browser</text></g><g stroke-linecap="round" transform="translate(885.9597218477552 23.999999999999943) rotate(0 17 16.99999999999997)"><path d="M8.5 0 C13.35 1.76, 21.2 -0.71, 25.5 0 C30.51 -0.55, 35.99 6.12, 34 8.5 C36.09 11.64, 31.41 18.33, 34 25.5 C34.04 30.91, 33.55 35.31, 25.5 34 C22.88 33.68, 15.62 31.79, 8.5 34 C5.15 36.2, -1.94 33.28, 0 25.5 C0.62 21.39, 3.05 20.25, 0 8.5 C1.75 4.79, 5.57 -1.91, 8.5 0" stroke="none" stroke-width="0" fill="#ffc9c9"></path><path d="M8.5 0 C12.77 0.82, 18.24 -0.18, 25.5 0 M8.5 0 C11.48 0.61, 16.21 -0.76, 25.5 0 M25.5 0 C30.85 -1.52, 35.45 3.09, 34 8.5 M25.5 0 C32.95 0.44, 32.84 4.67, 34 8.5 M34 8.5 C34.17 14, 33.8 14.97, 34 25.5 M34 8.5 C33.28 12.57, 34.52 16.98, 34 25.5 M34 25.5 C35.02 31.24, 30.39 35.28, 25.5 34 M34 25.5 C33.32 29.16, 32.26 31.8, 25.5 34 M25.5 34 C19.54 34.46, 14.62 35.75, 8.5 34 M25.5 34 C20.42 34.62, 16.38 34.22, 8.5 34 M8.5 34 C2.51 33.01, 1.42 33.13, 0 25.5 M8.5 34 C3.76 33.56, -0.03 29.04, 0 25.5 M0 25.5 C-0.52 21.35, 1.26 17.79, 0 8.5 M0 25.5 C0.16 18.66, -0.32 11.49, 0 8.5 M0 8.5 C-1.91 3.63, 3.05 -1.45, 8.5 0 M0 8.5 C-0.96 1.75, 2.95 0.28, 8.5 0" stroke="#e03131" stroke-width="2" fill="none"></path></g><g stroke-linecap="round" transform="translate(777.2641689074172 24.21471723422519) rotate(0 17 16.99999999999997)"><path d="M8.5 0 C13.6 -0.45, 19.21 0.99, 25.5 0 C29.03 2.07, 30.46 0.39, 34 8.5 C31.65 14.04, 32.94 18.39, 34 25.5 C30.51 28.57, 29.4 35.02, 25.5 34 C18.32 34.62, 16.41 36.5, 8.5 34 C1.71 31.55, 3.04 29.58, 0 25.5 C0.92 20.87, -1.39 14.57, 0 8.5 C-0.76 4.57, 0.4 -3.02, 8.5 0" stroke="none" stroke-width="0" fill="#b2f2bb"></path><path d="M8.5 0 C16.21 1.21, 21.17 0.3, 25.5 0 M8.5 0 C12.18 0.03, 16.24 -0.51, 25.5 0 M25.5 0 C32.35 0.76, 34.45 1.26, 34 8.5 M25.5 0 C29.4 -0.05, 33.33 2.29, 34 8.5 M34 8.5 C32.98 12.81, 34.33 17.03, 34 25.5 M34 8.5 C33.71 12.52, 33.48 15.32, 34 25.5 M34 25.5 C35.22 29.83, 31.19 34.86, 25.5 34 M34 25.5 C36.12 31.04, 29.29 34.29, 25.5 34 M25.5 34 C19.53 35.1, 13.86 33.68, 8.5 34 M25.5 34 C20.64 34.12, 16.59 33.99, 8.5 34 M8.5 34 C4.66 35.7, 0.87 29.67, 0 25.5 M8.5 34 C1.64 36.27, -0.49 30.69, 0 25.5 M0 25.5 C-0.81 19, 0.07 13.08, 0 8.5 M0 25.5 C-0.38 20.47, -0.09 15.24, 0 8.5 M0 8.5 C0.21 3.88, 3.39 -0.27, 8.5 0 M0 8.5 C1.33 4.34, 2.34 -1.19, 8.5 0" stroke="#2f9e44" stroke-width="2" fill="none"></path></g><g stroke-linecap="round" transform="translate(830.1966240154454 23.751015273999997) rotate(0 17 16.99999999999997)"><path d="M8.5 0 C14.98 0.8, 20.61 2.36, 25.5 0 C34.58 2.91, 30.92 0.82, 34 8.5 C33.87 14.44, 34.24 15, 34 25.5 C35.71 31.15, 29.86 32.78, 25.5 34 C17.28 32.24, 11.5 36.61, 8.5 34 C3.71 30.44, 2.51 30.7, 0 25.5 C2.11 24.1, 1.43 17.22, 0 8.5 C-1.27 5.3, 0.76 -1.42, 8.5 0" stroke="none" stroke-width="0" fill="#ffec99"></path><path d="M8.5 0 C15.84 0.3, 21.57 -0.54, 25.5 0 M8.5 0 C12.91 0.43, 17.5 -0.64, 25.5 0 M25.5 0 C29.89 1.66, 34.58 1.13, 34 8.5 M25.5 0 C32.32 -0.99, 35.4 0.6, 34 8.5 M34 8.5 C34.68 13.42, 34.17 15.52, 34 25.5 M34 8.5 C33.88 13.34, 34.86 18.96, 34 25.5 M34 25.5 C33.61 31.61, 32.83 34.65, 25.5 34 M34 25.5 C34.1 30.17, 30.12 33.51, 25.5 34 M25.5 34 C20.34 34.1, 13.24 34.39, 8.5 34 M25.5 34 C20.33 34.31, 16.73 33.37, 8.5 34 M8.5 34 C2.83 34.87, 0.09 29.54, 0 25.5 M8.5 34 C0.67 33.34, 2.18 30.93, 0 25.5 M0 25.5 C0 20.61, -1.2 12.02, 0 8.5 M0 25.5 C0.52 19.36, -0.51 13.32, 0 8.5 M0 8.5 C-1.19 1.26, 2.46 -0.9, 8.5 0 M0 8.5 C1.41 1.94, 4.83 -1.21, 8.5 0" stroke="#e8590c" stroke-width="2" fill="none"></path></g><g stroke-linecap="round" transform="translate(101.79572886431959 133.44246584571738) rotate(0 371.3552955432831 251.5451530040707)"><path d="M32 0 C203.29 0.33, 372.05 2.97, 710.71 0 C734.92 -1.08, 742.59 12.48, 742.71 32 C747.16 151.88, 746.23 276.2, 742.71 471.09 C740.48 494.47, 731.61 501.52, 710.71 503.09 C482.34 501.51, 254.87 502.06, 32 503.09 C13.14 500.44, -2.91 489.58, 0 471.09 C2.46 352.55, 2.91 235.11, 0 32 C0.39 7.77, 11.75 -1.5, 32 0" stroke="none" stroke-width="0" fill="#a5d8ff"></path><path d="M32 0 C215.09 -1.86, 397.62 -1.02, 710.71 0 M32 0 C220.13 -0.54, 408.6 -0.14, 710.71 0 M710.71 0 C731.62 0.88, 741.14 8.71, 742.71 32 M710.71 0 C732.68 0.92, 742.94 11.64, 742.71 32 M742.71 32 C743.46 152.72, 743.01 273.68, 742.71 471.09 M742.71 32 C744.53 168.71, 745.08 305.15, 742.71 471.09 M742.71 471.09 C741.46 493.11, 730.08 504.75, 710.71 503.09 M742.71 471.09 C744.05 494.53, 733.51 505.12, 710.71 503.09 M710.71 503.09 C526.87 501.82, 342.13 501.33, 32 503.09 M710.71 503.09 C471.51 501.24, 232.25 501.02, 32 503.09 M32 503.09 C11.84 503.35, -0.42 492.45, 0 471.09 M32 503.09 C10.04 502.51, -0.59 492.84, 0 471.09 M0 471.09 C0.43 331.54, -0.07 190.87, 0 32 M0 471.09 C2 344.65, 1.91 217.96, 0 32 M0 32 C1.13 12.41, 9.28 -1.98, 32 0 M0 32 C-0.24 9.27, 12.5 1.38, 32 0" stroke="#1971c2" stroke-width="2" fill="none"></path></g><g transform="translate(155.38080153160405 169.30295268013367) rotate(0 193.10406494140625 22.5)"><text x="0" y="31.536" font-family="Virgil, Segoe UI Emoji" font-size="36px" fill="#1e1e1e" text-anchor="start" style="white-space: pre;" direction="ltr" dominant-baseline="alphabetic">TypeScript Application</text></g><g stroke-linecap="round" transform="translate(1293.9621168342933 151.3959174922968) rotate(0 203.73903646490953 145.09173341791973)"><path d="M32 0 C144.74 -2.4, 261.12 -1.91, 375.48 0 C394.03 -3.32, 408.33 11.48, 407.48 32 C410.63 83.59, 406.54 137.89, 407.48 258.18 C407.76 279.49, 398.48 291.17, 375.48 290.18 C306.59 285.43, 235.46 288, 32 290.18 C9.21 289.48, -1.39 281.58, 0 258.18 C3.19 194.29, 4.18 132.53, 0 32 C-1 12.96, 7.37 1.48, 32 0" stroke="none" stroke-width="0" fill="#a5d8ff"></path><path d="M32 0 C159.27 2.32, 285 2.51, 375.48 0 M32 0 C123.92 0.37, 215.69 0.57, 375.48 0 M375.48 0 C397.39 -0.51, 405.77 8.73, 407.48 32 M375.48 0 C398.79 2.12, 409.13 11.05, 407.48 32 M407.48 32 C406.34 117.98, 409.03 205.97, 407.48 258.18 M407.48 32 C406.78 83.67, 405.74 134.63, 407.48 258.18 M407.48 258.18 C407.44 281.44, 396.16 288.76, 375.48 290.18 M407.48 258.18 C408.4 281.42, 397.99 288.19, 375.48 290.18 M375.48 290.18 C301.21 290.3, 224.92 288.15, 32 290.18 M375.48 290.18 C275.31 289.28, 175.43 289.46, 32 290.18 M32 290.18 C10.71 289.19, 0.06 281.13, 0 258.18 M32 290.18 C9.83 289.01, -0.91 279.65, 0 258.18 M0 258.18 C0.22 179.13, 0.85 98.26, 0 32 M0 258.18 C1.64 176.63, 0.54 95.78, 0 32 M0 32 C0.19 10.86, 8.95 -1.93, 32 0 M0 32 C1.25 10.2, 10.2 -2.3, 32 0" stroke="#1971c2" stroke-width="2" fill="none"></path></g><g transform="translate(1334.298222850612 178.324137660338) rotate(0 142.29005432128906 22.5)"><text x="0" y="31.536" font-family="Virgil, Segoe UI Emoji" font-size="36px" fill="#1e1e1e" text-anchor="start" style="white-space: pre;" direction="ltr" dominant-baseline="alphabetic">Zenohd instance</text></g><g transform="translate(1334.298222850612 269.8609389095261) rotate(0 147.65625 43.199999999999996)"><text x="0" y="34.762499999999996" font-family="Cascadia, Segoe UI Emoji" font-size="36px" fill="#1971c2" text-anchor="start" style="white-space: pre;" direction="ltr" dominant-baseline="alphabetic">tcp/[::]:7447 </text><text x="0" y="77.96249999999999" font-family="Cascadia, Segoe UI Emoji" font-size="36px" fill="#1971c2" text-anchor="start" style="white-space: pre;" direction="ltr" dominant-baseline="alphabetic"> ws/[::]:10000</text></g><g stroke-linecap="round" transform="translate(820.3013822769855 762.5431719051394) rotate(0 237.99282948108555 117.34368675803512)"><path d="M32 0 C174.14 4.3, 314.28 4.79, 443.99 0 C466.64 -3.38, 474.98 11.31, 475.99 32 C478.53 83.72, 475.83 136.57, 475.99 202.69 C475.33 221.34, 467.6 234, 443.99 234.69 C317.71 233.88, 188.66 234.45, 32 234.69 C7.57 231.7, -0.74 221.91, 0 202.69 C1.71 161.84, 2.45 116.98, 0 32 C2.77 9.49, 13.18 -1.42, 32 0" stroke="none" stroke-width="0" fill="#b2f2bb"></path><path d="M32 0 C164.58 -2.13, 299.27 -0.44, 443.99 0 M32 0 C179.25 -0.53, 325.49 0.09, 443.99 0 M443.99 0 C466.57 1.56, 475.54 8.71, 475.99 32 M443.99 0 C466.74 -0.46, 477.26 11.15, 475.99 32 M475.99 32 C476.26 96.99, 475.43 159.42, 475.99 202.69 M475.99 32 C477.28 98.5, 477.57 165.46, 475.99 202.69 M475.99 202.69 C476.14 225.05, 465.67 234.45, 443.99 234.69 M475.99 202.69 C476.17 224.15, 464.53 234.85, 443.99 234.69 M443.99 234.69 C321.37 237.01, 199.47 237.17, 32 234.69 M443.99 234.69 C315.59 232.93, 187.26 233.11, 32 234.69 M32 234.69 C11 233.67, -0.29 225.32, 0 202.69 M32 234.69 C11.24 236.8, 1.89 225.4, 0 202.69 M0 202.69 C-0.91 140.99, -0.63 76.69, 0 32 M0 202.69 C0.85 155.28, -0.09 109.91, 0 32 M0 32 C-1.03 10.58, 11.76 1.43, 32 0 M0 32 C-0.69 12.24, 11.11 -0.5, 32 0" stroke="#2f9e44" stroke-width="2" fill="none"></path></g><g transform="translate(863.2723098221819 788.9868196252601) rotate(0 53.40602111816406 22.5)"><text x="0" y="31.536" font-family="Virgil, Segoe UI Emoji" font-size="36px" fill="#1e1e1e" text-anchor="start" style="white-space: pre;" direction="ltr" dominant-baseline="alphabetic">z_pub</text></g><g transform="translate(865.2595633270226 875.5469146734238) rotate(0 158.203125 21.600000000000023)"><text x="0" y="34.762499999999996" font-family="Cascadia, Segoe UI Emoji" font-size="36px" fill="#2f9e44" text-anchor="start" style="white-space: pre;" direction="ltr" dominant-baseline="alphabetic">demo/send/to/ts</text></g><g stroke-linecap="round" transform="translate(1442.6119127459092 762.0855180116539) rotate(0 237.99282948108555 117.34368675803512)"><path d="M32 0 C189.73 -3.81, 343.8 -0.95, 443.99 0 C463.73 0.54, 473.78 9.72, 475.99 32 C478.35 85.47, 475.51 143.47, 475.99 202.69 C472.99 223.52, 462.54 231.87, 443.99 234.69 C339.23 235.52, 235.05 236.77, 32 234.69 C8.76 232.05, 2.68 226.44, 0 202.69 C-4.45 142.37, 1.27 86.8, 0 32 C-3.53 10.06, 7.2 2.24, 32 0" stroke="none" stroke-width="0" fill="#ffec99"></path><path d="M32 0 C184.1 1.52, 335.48 -0.06, 443.99 0 M32 0 C176.65 -0.46, 320.95 -0.17, 443.99 0 M443.99 0 C464.66 0.64, 477.14 11.53, 475.99 32 M443.99 0 C463.37 -1.45, 475.23 12.56, 475.99 32 M475.99 32 C475.61 94.18, 478.33 159.49, 475.99 202.69 M475.99 32 C476.53 87.04, 476.56 140.71, 475.99 202.69 M475.99 202.69 C477.35 222.8, 466 233.75, 443.99 234.69 M475.99 202.69 C476.35 223.01, 463.13 234.5, 443.99 234.69 M443.99 234.69 C333.21 233.7, 221.89 234.52, 32 234.69 M443.99 234.69 C318.38 235.62, 192.61 236.01, 32 234.69 M32 234.69 C9.53 232.78, 1.72 222.51, 0 202.69 M32 234.69 C10.15 233.18, 2.04 223.75, 0 202.69 M0 202.69 C-2.2 165.08, -2.44 128.14, 0 32 M0 202.69 C1.2 137.69, 0.68 73.74, 0 32 M0 32 C0.09 10.5, 10.83 -0.75, 32 0 M0 32 C-1.17 10.66, 12.82 0.01, 32 0" stroke="#f08c00" stroke-width="2" fill="none"></path></g><g transform="translate(1485.5828402911056 788.5291657317746) rotate(0 54.30602264404297 22.5)"><text x="0" y="31.536" font-family="Virgil, Segoe UI Emoji" font-size="36px" fill="#1e1e1e" text-anchor="start" style="white-space: pre;" direction="ltr" dominant-baseline="alphabetic">z_sub</text></g><g transform="translate(1487.5700937959464 875.0892607799383) rotate(0 179.296875 21.600000000000023)"><text x="0" y="34.762499999999996" font-family="Cascadia, Segoe UI Emoji" font-size="36px" fill="#f08c00" text-anchor="start" style="white-space: pre;" direction="ltr" dominant-baseline="alphabetic">demo/recv/from/ts</text></g><g stroke-linecap="round"><g transform="translate(858.5126481983216 291.6426134951698) rotate(0 214.01877024047923 1.1789829143745045)"><path d="M-0.78 -0.34 C70.51 0.51, 357.09 3.18, 428.81 3.92 M1.02 -1.56 C72.06 -0.98, 356.53 1.36, 427.9 1.97" stroke="#1e1e1e" stroke-width="2" fill="none"></path></g><g transform="translate(858.5126481983216 291.6426134951698) rotate(0 214.01877024047923 1.1789829143745045)"><path d="M22.8 -8.66 C12.94 -5.45, 4.83 -0.95, -0.78 -0.34 M22.8 -8.66 C15.6 -5.15, 6.36 -3.72, -0.78 -0.34" stroke="#1e1e1e" stroke-width="2" fill="none"></path></g><g transform="translate(858.5126481983216 291.6426134951698) rotate(0 214.01877024047923 1.1789829143745045)"><path d="M22.63 8.44 C13 4.96, 4.97 2.79, -0.78 -0.34 M22.63 8.44 C15.59 6.04, 6.41 1.57, -0.78 -0.34" stroke="#1e1e1e" stroke-width="2" fill="none"></path></g><g transform="translate(858.5126481983216 291.6426134951698) rotate(0 214.01877024047923 1.1789829143745045)"><path d="M404.34 10.32 C413.06 7.32, 423.38 5.31, 427.9 1.97 M404.34 10.32 C413.51 8.02, 420.54 3.69, 427.9 1.97" stroke="#1e1e1e" stroke-width="2" fill="none"></path></g><g transform="translate(858.5126481983216 291.6426134951698) rotate(0 214.01877024047923 1.1789829143745045)"><path d="M404.48 -6.78 C412.98 -3.1, 423.24 1.57, 427.9 1.97 M404.48 -6.78 C413.51 -3.18, 420.49 -1.6, 427.9 1.97" stroke="#1e1e1e" stroke-width="2" fill="none"></path></g></g><mask></mask><g stroke-linecap="round"><g transform="translate(1311.1671142957885 451.28982269001403) rotate(0 -122.66797793086357 149.51966947532526)"><path d="M0.58 -0.51 C-40.23 49.55, -204.91 250.51, -245.92 300.86 M-0.57 -1.83 C-40.94 47.82, -202.81 248.67, -243.81 298.94" stroke="#1e1e1e" stroke-width="2" fill="none"></path></g><g transform="translate(1311.1671142957885 451.28982269001403) rotate(0 -122.66797793086357 149.51966947532526)"><path d="M-7.68 23.09 C-6.87 16.1, -3.62 11.88, 0.58 -0.51 M-7.68 23.09 C-4.47 14.13, -0.13 3.8, 0.58 -0.51" stroke="#1e1e1e" stroke-width="2" fill="none"></path></g><g transform="translate(1311.1671142957885 451.28982269001403) rotate(0 -122.66797793086357 149.51966947532526)"><path d="M-20.91 12.26 C-17.24 7.51, -11.17 5.6, 0.58 -0.51 M-20.91 12.26 C-12.55 7.63, -3 1.55, 0.58 -0.51" stroke="#1e1e1e" stroke-width="2" fill="none"></path></g><g transform="translate(1311.1671142957885 451.28982269001403) rotate(0 -122.66797793086357 149.51966947532526)"><path d="M-235.67 275.31 C-238.16 278.45, -238.4 284.29, -243.81 298.94 M-235.67 275.31 C-239.09 284.84, -241.19 293.06, -243.81 298.94" stroke="#1e1e1e" stroke-width="2" fill="none"></path></g><g transform="translate(1311.1671142957885 451.28982269001403) rotate(0 -122.66797793086357 149.51966947532526)"><path d="M-222.38 286.07 C-227.74 286.99, -230.81 290.53, -243.81 298.94 M-222.38 286.07 C-230.98 291.3, -238.31 295.3, -243.81 298.94" stroke="#1e1e1e" stroke-width="2" fill="none"></path></g></g><mask></mask><g stroke-linecap="round"><g transform="translate(1528.0695346471252 445.3200313041973) rotate(0 56.40542903031144 154.4119436269289)"><path d="M-1.13 0.31 C17.74 51.6, 95.04 256.74, 113.94 308.06 M0.47 -0.58 C19.17 50.86, 94.25 257.73, 113.27 309.4" stroke="#1e1e1e" stroke-width="2" fill="none"></path></g><g transform="translate(1528.0695346471252 445.3200313041973) rotate(0 56.40542903031144 154.4119436269289)"><path d="M15.11 19.31 C9.73 13.19, 2.76 3.61, -1.13 0.31 M15.11 19.31 C9.56 14.05, 6.07 9.35, -1.13 0.31" stroke="#1e1e1e" stroke-width="2" fill="none"></path></g><g transform="translate(1528.0695346471252 445.3200313041973) rotate(0 56.40542903031144 154.4119436269289)"><path d="M-0.91 25.3 C-0.54 17.18, -1.76 5.45, -1.13 0.31 M-0.91 25.3 C-1.92 18.41, -0.85 12.01, -1.13 0.31" stroke="#1e1e1e" stroke-width="2" fill="none"></path></g><g transform="translate(1528.0695346471252 445.3200313041973) rotate(0 56.40542903031144 154.4119436269289)"><path d="M97.18 290.27 C103.52 298.16, 108.17 302.3, 113.27 309.4 M97.18 290.27 C101 296.04, 106.72 302.21, 113.27 309.4" stroke="#1e1e1e" stroke-width="2" fill="none"></path></g><g transform="translate(1528.0695346471252 445.3200313041973) rotate(0 56.40542903031144 154.4119436269289)"><path d="M113.24 284.4 C113.82 294.25, 112.7 300.5, 113.27 309.4 M113.24 284.4 C112.51 291.76, 113.65 299.61, 113.27 309.4" stroke="#1e1e1e" stroke-width="2" fill="none"></path></g></g><mask></mask><g stroke-linecap="round" transform="translate(996.7581013094473 186.6290712521445) rotate(0 27.85902646714419 28.853991698113646)"><path d="M35 7.25 C34.45 12.09, 43.66 10.5, 48.72 21.75 C56.49 28.88, 55.74 31.88, 48.72 36.25 C44.21 41.25, 43.64 39.45, 35 50.46 C28.96 55.76, 27.05 59.53, 21 50.46 C13.77 48.03, 13.97 40.01, 7 36.25 C-3.59 27.03, -3.44 26.49, 7 21.75 C11.24 18.16, 9.8 12.4, 21 7.25 C29.85 0.43, 30.58 0.77, 35 7.25" stroke="none" stroke-width="0" fill="#ffec99"></path><path d="M35 7.25 C40.29 9.81, 42.88 13.87, 48.72 21.75 M35 7.25 C39.75 11.1, 44.4 17.07, 48.72 21.75 M48.72 21.75 C55.74 30.64, 57.03 27.14, 48.72 36.25 M48.72 21.75 C56.47 28.76, 57.04 30.1, 48.72 36.25 M48.72 36.25 C43.27 41.36, 38.56 43.78, 35 50.46 M48.72 36.25 C43.61 41.14, 37.13 47.32, 35 50.46 M35 50.46 C27.48 56.23, 26.6 56.63, 21 50.46 M35 50.46 C28.12 55.88, 29.15 55.69, 21 50.46 M21 50.46 C18.85 44.62, 11.52 43.61, 7 36.25 M21 50.46 C16.4 47.37, 13.41 42.95, 7 36.25 M7 36.25 C1.67 29.31, -0.06 27.41, 7 21.75 M7 36.25 C1.69 27.39, -0.56 28.65, 7 21.75 M7 21.75 C10.48 15.46, 19.42 9.52, 21 7.25 M7 21.75 C11.13 17.52, 18.11 11.03, 21 7.25 M21 7.25 C29.09 -0.34, 27.09 -1.45, 35 7.25 M21 7.25 C29.43 -1.02, 29.51 -1.8, 35 7.25" stroke="#f08c00" stroke-width="2" fill="none"></path></g><g stroke-linecap="round"><g transform="translate(1052.0666799715652 216.57983659831746) rotate(0 36.88407531949122 -0.11802791096270226)"><path d="M0.49 0.69 C13.02 0.52, 62.08 -0.74, 74.48 -0.93 M-0.72 0.01 C11.72 -0.04, 61.05 0.01, 73.57 0.12" stroke="#f08c00" stroke-width="2" fill="none"></path></g><g transform="translate(1052.0666799715652 216.57983659831746) rotate(0 36.88407531949122 -0.11802791096270226)"><path d="M50.04 8.57 C56.9 6.53, 59.91 5.18, 73.57 0.12 M50.04 8.57 C55.68 5.99, 62.82 5.13, 73.57 0.12" stroke="#f08c00" stroke-width="2" fill="none"></path></g><g transform="translate(1052.0666799715652 216.57983659831746) rotate(0 36.88407531949122 -0.11802791096270226)"><path d="M50.12 -8.53 C56.97 -6.42, 59.96 -3.62, 73.57 0.12 M50.12 -8.53 C55.63 -6.59, 62.76 -2.93, 73.57 0.12" stroke="#f08c00" stroke-width="2" fill="none"></path></g></g><mask></mask><g stroke-linecap="round" transform="translate(1563.121089313382 467.35124178442055) rotate(0 27.85902646714419 28.853991698113646)"><path d="M35 7.25 C41.35 10.05, 39.31 15.2, 48.72 21.75 C59.06 32.59, 56.74 31.06, 48.72 36.25 C44.4 40.06, 42.05 42.71, 35 50.46 C29.06 54.47, 29.08 56.44, 21 50.46 C16.08 45.45, 10.83 44.59, 7 36.25 C0.62 31.17, -3.27 27.26, 7 21.75 C9.38 17.48, 18.24 7.64, 21 7.25 C30.04 0.58, 26.18 -1.88, 35 7.25" stroke="none" stroke-width="0" fill="#ffec99"></path><path d="M35 7.25 C38.97 11.49, 40.19 13.83, 48.72 21.75 M35 7.25 C38.09 10.32, 41.54 13.23, 48.72 21.75 M48.72 21.75 C56.03 29.27, 56.96 28.24, 48.72 36.25 M48.72 21.75 C56.82 29.19, 53.95 31.02, 48.72 36.25 M48.72 36.25 C46.71 41.16, 42.53 43.95, 35 50.46 M48.72 36.25 C45.56 40.06, 40.5 44.76, 35 50.46 M35 50.46 C26.97 58.45, 29.84 59.33, 21 50.46 M35 50.46 C29.4 55.92, 29.95 57.81, 21 50.46 M21 50.46 C18.88 47.32, 14.86 44.88, 7 36.25 M21 50.46 C15.44 44.8, 9.67 39.57, 7 36.25 M7 36.25 C-1.77 29.15, 0.41 30.19, 7 21.75 M7 36.25 C-0.08 28.56, -0.8 28.08, 7 21.75 M7 21.75 C8.81 20.14, 13.73 15.27, 21 7.25 M7 21.75 C13.23 15.29, 17.45 11.08, 21 7.25 M21 7.25 C28.04 -0.12, 28.36 1.39, 35 7.25 M21 7.25 C27.3 -1.39, 27.88 1.6, 35 7.25" stroke="#f08c00" stroke-width="2" fill="none"></path></g><g stroke-linecap="round"><g transform="translate(1595.3677453473765 527.6466421675982) rotate(0 16.576871641404296 37.00722599771527)"><path d="M0.76 -0.42 C6.18 11.9, 28.05 61.79, 33.46 74.54 M-0.3 -1.69 C4.91 10.72, 27.21 63.07, 32.67 75.7" stroke="#f08c00" stroke-width="2" fill="none"></path></g><g transform="translate(1595.3677453473765 527.6466421675982) rotate(0 16.576871641404296 37.00722599771527)"><path d="M15.56 57.48 C21.38 64.73, 27.31 71.17, 32.67 75.7 M15.56 57.48 C21.73 63.31, 28.22 71.03, 32.67 75.7" stroke="#f08c00" stroke-width="2" fill="none"></path></g><g transform="translate(1595.3677453473765 527.6466421675982) rotate(0 16.576871641404296 37.00722599771527)"><path d="M31.28 50.74 C31.22 60.62, 31.26 69.59, 32.67 75.7 M31.28 50.74 C31.67 58.99, 32.4 69.18, 32.67 75.7" stroke="#f08c00" stroke-width="2" fill="none"></path></g></g><mask></mask><g stroke-linecap="round" transform="translate(322.82513135922807 260.3547216338836) rotate(0 173.09109103310658 66.46687463316927)"><path d="M32 0 C130.99 -0.63, 234.12 1.6, 314.18 0 C334.22 3.06, 344.94 12.05, 346.18 32 C348.65 54.16, 342.86 73.71, 346.18 100.93 C349.18 118.72, 332.51 129.79, 314.18 132.93 C221.07 133.82, 126.83 134.22, 32 132.93 C13.16 133.84, 0.88 122.19, 0 100.93 C-1.13 83.85, -2.25 68.33, 0 32 C0.95 13.69, 7.82 0.72, 32 0" stroke="none" stroke-width="0" fill="#ffec99"></path><path d="M32 0 C129.27 -2.76, 228.14 -0.91, 314.18 0 M32 0 C112.12 -0.02, 191.52 0.14, 314.18 0 M314.18 0 C335.87 -1.52, 345.34 10.66, 346.18 32 M314.18 0 C335.52 -0.19, 346.02 9.56, 346.18 32 M346.18 32 C346.45 55.91, 346.22 77.62, 346.18 100.93 M346.18 32 C345.97 60.18, 347.25 85.98, 346.18 100.93 M346.18 100.93 C347.38 120.98, 336.51 132.33, 314.18 132.93 M346.18 100.93 C347.88 123, 335.66 133.72, 314.18 132.93 M314.18 132.93 C241.89 132.3, 166.38 131.57, 32 132.93 M314.18 132.93 C219.97 131.19, 124.63 130.8, 32 132.93 M32 132.93 C12.25 132.25, 1.24 123.8, 0 100.93 M32 132.93 C9.7 134.7, 0 121.24, 0 100.93 M0 100.93 C-1.01 83.54, -0.99 64.66, 0 32 M0 100.93 C0.84 79.93, 1.09 57.21, 0 32 M0 32 C1.01 9.06, 11.97 0.6, 32 0 M0 32 C-0.1 8.64, 12.22 -1.21, 32 0" stroke="#f08c00" stroke-width="2" fill="none"></path></g><g transform="translate(349.7534556350556 324.1774948277159) rotate(0 139.453125 16.8)"><text x="0" y="27.0375" font-family="Cascadia, Segoe UI Emoji" font-size="28px" fill="#f08c00" text-anchor="start" style="white-space: pre;" direction="ltr" dominant-baseline="alphabetic">demo/recv/from/ts</text></g><g transform="translate(351.0395402319021 269.44868794629843) rotate(0 66.8782730102539 17.5)"><text x="0" y="24.528" font-family="Virgil, Segoe UI Emoji" font-size="28px" fill="#f08c00" text-anchor="start" style="white-space: pre;" direction="ltr" dominant-baseline="alphabetic">Publish on</text></g><g stroke-linecap="round" transform="translate(326.6428806796978 458.87105826127527) rotate(0 166.41002972228523 67.00374563136035)"><path d="M32 0 C136.01 -4.62, 232.88 -0.61, 300.82 0 C323.35 -0.17, 329.69 8.03, 332.82 32 C333.71 48.65, 329.68 72.78, 332.82 102.01 C331.96 122.92, 322.59 137.38, 300.82 134.01 C242.73 134.45, 187.07 135.22, 32 134.01 C12.98 130.7, 3.08 122.73, 0 102.01 C4.41 76.25, 1.95 47.84, 0 32 C-0.52 12.29, 9.06 3.23, 32 0" stroke="none" stroke-width="0" fill="#b2f2bb"></path><path d="M32 0 C114.37 0.66, 198 -1.07, 300.82 0 M32 0 C123.13 -0.03, 214.87 0.75, 300.82 0 M300.82 0 C321.11 1.26, 333.87 12.1, 332.82 32 M300.82 0 C323.34 -1.9, 334.65 11.73, 332.82 32 M332.82 32 C334.53 58.31, 331.88 87.22, 332.82 102.01 M332.82 32 C333.44 48.16, 331.8 66.08, 332.82 102.01 M332.82 102.01 C333.96 123.5, 322.59 133.5, 300.82 134.01 M332.82 102.01 C334.52 124.92, 322.28 132.11, 300.82 134.01 M300.82 134.01 C230.09 132.64, 158.93 133.22, 32 134.01 M300.82 134.01 C210.59 134.23, 120.52 134.72, 32 134.01 M32 134.01 C11.87 133.52, 0.53 122.79, 0 102.01 M32 134.01 C12.7 135.18, 0.25 122.29, 0 102.01 M0 102.01 C1.36 83.79, -0.45 63.83, 0 32 M0 102.01 C0.64 80.54, -0.23 57.5, 0 32 M0 32 C0.5 12.2, 9.87 -0.49, 32 0 M0 32 C-0.33 9.59, 11.96 -2.22, 32 0" stroke="#2f9e44" stroke-width="2" fill="none"></path></g><g transform="translate(351.94851784584614 517.8355441934071) rotate(0 123.046875 16.799999999999997)"><text x="0" y="27.0375" font-family="Cascadia, Segoe UI Emoji" font-size="28px" fill="#2f9e44" text-anchor="start" style="white-space: pre;" direction="ltr" dominant-baseline="alphabetic">demo/send/to/ts</text></g><g transform="translate(352.08265426434394 464.213586953875) rotate(0 82.44634246826172 17.5)"><text x="0" y="24.528" font-family="Virgil, Segoe UI Emoji" font-size="28px" fill="#2f9e44" text-anchor="start" style="white-space: pre;" direction="ltr" dominant-baseline="alphabetic">subscribe on</text></g><g stroke-linecap="round" transform="translate(1166.7053215710816 635.1756157290064) rotate(0 27.859026467144247 28.853991698113646)"><path d="M35 7.25 C40.16 8.45, 40.03 13.33, 48.72 21.75 C57.2 27.27, 53.16 29.77, 48.72 36.25 C41.32 40.02, 41.07 44.91, 35 50.46 C28.58 56.53, 30.9 57.85, 21 50.46 C13.63 49.58, 10.21 41.28, 7 36.25 C2.03 29.96, 1.24 25.5, 7 21.75 C11.69 15.03, 12.9 14.77, 21 7.25 C30.87 3.41, 31.53 2.9, 35 7.25" stroke="none" stroke-width="0" fill="#b2f2bb"></path><path d="M35 7.25 C37.7 9.28, 40.25 13.97, 48.72 21.75 M35 7.25 C40.58 12.1, 45.36 17.39, 48.72 21.75 M48.72 21.75 C54.68 30.04, 56.37 28.68, 48.72 36.25 M48.72 21.75 C54.56 28.7, 55.91 29.38, 48.72 36.25 M48.72 36.25 C44.17 38.46, 42.03 41.04, 35 50.46 M48.72 36.25 C43.91 41.42, 38.74 47.12, 35 50.46 M35 50.46 C28.03 57.39, 28.52 58.32, 21 50.46 M35 50.46 C27.45 56.93, 28.29 58.5, 21 50.46 M21 50.46 C16.19 47.45, 12.46 40.49, 7 36.25 M21 50.46 C15.47 44.45, 10.17 40.49, 7 36.25 M7 36.25 C-1.82 29.57, -0.54 27.24, 7 21.75 M7 36.25 C0.06 27.54, -1.71 28.23, 7 21.75 M7 21.75 C11.33 18.18, 18.17 11.29, 21 7.25 M7 21.75 C10.12 18.39, 12.52 15.87, 21 7.25 M21 7.25 C29.97 -1.26, 27.45 0.75, 35 7.25 M21 7.25 C27.3 -1.34, 28 -0.68, 35 7.25" stroke="#2f9e44" stroke-width="2" fill="none"></path></g><g stroke-linecap="round"><g transform="translate(1209.2198885450712 643.1500140755013) rotate(0 28.69188779785219 -35.07855618176018)"><path d="M-0.76 -0.4 C8.82 -11.73, 48.5 -56.46, 58.14 -68.01 M1.04 -1.65 C10.48 -13.32, 48.46 -58.56, 57.67 -69.76" stroke="#2f9e44" stroke-width="2" fill="none"></path></g><g transform="translate(1209.2198885450712 643.1500140755013) rotate(0 28.69188779785219 -35.07855618176018)"><path d="M49.22 -46.23 C51.58 -53.06, 56.43 -63.16, 57.67 -69.76 M49.22 -46.23 C51.17 -51.59, 52.36 -56.1, 57.67 -69.76" stroke="#2f9e44" stroke-width="2" fill="none"></path></g><g transform="translate(1209.2198885450712 643.1500140755013) rotate(0 28.69188779785219 -35.07855618176018)"><path d="M36.08 -57.16 C43.11 -60.01, 52.65 -66.22, 57.67 -69.76 M36.08 -57.16 C40.85 -60.08, 44.93 -62.18, 57.67 -69.76" stroke="#2f9e44" stroke-width="2" fill="none"></path></g></g><mask></mask><g stroke-linecap="round" transform="translate(1088.44146050146 329.75567009145846) rotate(0 27.85902646714419 28.853991698113646)"><path d="M35 7.25 C42.67 11.73, 46.71 16.02, 48.72 21.75 C56.39 27.32, 57.81 32.21, 48.72 36.25 C48.21 39.07, 40.88 42.38, 35 50.46 C28.86 54.49, 31.25 55.7, 21 50.46 C12.06 42.34, 13.3 41.57, 7 36.25 C0.74 28.2, 2.03 30.27, 7 21.75 C7.1 18.9, 13.6 13.89, 21 7.25 C31.21 1.65, 29.04 0.74, 35 7.25" stroke="none" stroke-width="0" fill="#b2f2bb"></path><path d="M35 7.25 C39.23 13.61, 43.68 19, 48.72 21.75 M35 7.25 C38.02 10.27, 42.15 14.77, 48.72 21.75 M48.72 21.75 C55.08 27.13, 55.47 28.53, 48.72 36.25 M48.72 21.75 C56.19 28.2, 57.31 29.46, 48.72 36.25 M48.72 36.25 C42.35 41.66, 40.69 44.46, 35 50.46 M48.72 36.25 C45.45 38.62, 43.48 42.92, 35 50.46 M35 50.46 C27.37 56.44, 28.26 56.88, 21 50.46 M35 50.46 C30.12 57.83, 27.84 59.43, 21 50.46 M21 50.46 C16.33 45.79, 15.76 46.01, 7 36.25 M21 50.46 C16.02 44.64, 10.88 39.32, 7 36.25 M7 36.25 C1.12 29.83, -1.77 30.07, 7 21.75 M7 36.25 C0.51 27.65, -0.16 30.65, 7 21.75 M7 21.75 C13.82 16.86, 15.1 10.63, 21 7.25 M7 21.75 C10.43 17.37, 16.19 13.28, 21 7.25 M21 7.25 C29.82 -0.75, 26.45 1.42, 35 7.25 M21 7.25 C25.84 0.59, 28.02 -0.55, 35 7.25" stroke="#2f9e44" stroke-width="2" fill="none"></path></g><g stroke-linecap="round"><g transform="translate(1079.973100529813 351.6929754461694) rotate(0 -45.819925555357315 0.18406412936747074)"><path d="M1.18 1.01 C-13.98 0.82, -76.4 -0.42, -91.79 -0.64 M0.34 0.5 C-14.92 0.41, -77.47 0.51, -92.82 0.56" stroke="#2f9e44" stroke-width="2" fill="none"></path></g><g transform="translate(1079.973100529813 351.6929754461694) rotate(0 -45.819925555357315 0.18406412936747074)"><path d="M-69.34 -8.04 C-73.01 -6.07, -81.16 -3.1, -92.82 0.56 M-69.34 -8.04 C-75.1 -5.33, -82.91 -2.88, -92.82 0.56" stroke="#2f9e44" stroke-width="2" fill="none"></path></g><g transform="translate(1079.973100529813 351.6929754461694) rotate(0 -45.819925555357315 0.18406412936747074)"><path d="M-69.31 9.06 C-73.05 7.1, -81.21 6.15, -92.82 0.56 M-69.31 9.06 C-75.18 7.14, -83 4.95, -92.82 0.56" stroke="#2f9e44" stroke-width="2" fill="none"></path></g></g><mask></mask><g transform="translate(1009.4035059954623 257.43930479713435) rotate(0 69.9863052368164 17.5)"><text x="0" y="24.528" font-family="Virgil, Segoe UI Emoji" font-size="28px" fill="#1e1e1e" text-anchor="start" style="white-space: pre;" direction="ltr" dominant-baseline="alphabetic">Websocket</text></g></svg>